<?xml version="1.0" encoding="UTF-8" standalone="no"?>
<svg
   xmlns:dc="http://purl.org/dc/elements/1.1/"
   xmlns:cc="http://creativecommons.org/ns#"
   xmlns:rdf="http://www.w3.org/1999/02/22-rdf-syntax-ns#"
   xmlns:svg="http://www.w3.org/2000/svg"
   xmlns="http://www.w3.org/2000/svg"
   xmlns:xlink="http://www.w3.org/1999/xlink"
   xmlns:sodipodi="http://sodipodi.sourceforge.net/DTD/sodipodi-0.dtd"
   xmlns:inkscape="http://www.inkscape.org/namespaces/inkscape"
   width="20px"
   height="19px"
   viewBox="0 0 20 19"
   version="1.1"
   id="svg27"
   sodipodi:docname="icon.svg"
   inkscape:version="1.0.1 (c497b03c, 2020-09-10)"
   inkscape:export-filename="/Users/willemcrone/Desktop/CareerFoundryTasks/CareerFoundryApps/chat-app/assets/icon.png"
   inkscape:export-xdpi="96"
   inkscape:export-ydpi="96">
  <metadata
     id="metadata31">
    <rdf:RDF>
      <cc:Work
         rdf:about="">
        <dc:format>image/svg+xml</dc:format>
        <dc:type
           rdf:resource="http://purl.org/dc/dcmitype/StillImage" />
        <dc:title>icon</dc:title>
      </cc:Work>
    </rdf:RDF>
  </metadata>
  <sodipodi:namedview
     pagecolor="#ffffff"
     bordercolor="#666666"
     borderopacity="1"
     objecttolerance="10"
     gridtolerance="10"
     guidetolerance="10"
     inkscape:pageopacity="0"
     inkscape:pageshadow="2"
     inkscape:window-width="740"
     inkscape:window-height="480"
     id="namedview29"
     showgrid="false"
     inkscape:zoom="27.315789"
     inkscape:cx="9.6339114"
     inkscape:cy="9.9026975"
     inkscape:window-x="0"
     inkscape:window-y="25"
     inkscape:window-maximized="0"
     inkscape:current-layer="svg27" />
  <!-- Generator: Sketch 55 (78076) - https://sketchapp.com -->
  <title
     id="title10">icon</title>
  <desc
     id="desc12">Created with Sketch.</desc>
  <defs
     id="defs15">
    <path
       d="M12,13.2533333 C15.24,13.2533333 21.6,14.830125 21.6,18.105 L21.6,20.5308333 L2.4,20.5308333 L2.4,18.105 C2.4,14.830125 8.76,13.2533333 12,13.2533333 Z M20.64,19.5708333 L20.64,18.105 C20.64,16.0913979 15.9773097,14.2133333 12,14.2133333 C8.02269035,14.2133333 3.36,16.0913979 3.36,18.105 L3.36,19.5708333 L20.64,19.5708333 Z M12,11.36 C9.624,11.36 7.68,9.443 7.68,7.1 C7.68,4.757 9.624,2.84 12,2.84 C14.376,2.84 16.32,4.757 16.32,7.1 C16.32,9.443 14.376,11.36 12,11.36 Z M12,10.4 C13.8487889,10.4 15.36,8.90977792 15.36,7.1 C15.36,5.29022208 13.8487889,3.8 12,3.8 C10.1512111,3.8 8.64,5.29022208 8.64,7.1 C8.64,8.90977792 10.1512111,10.4 12,10.4 Z"
       id="path-1" />
  </defs>
  <g
     id="Page-1"
     stroke="none"
     stroke-width="1"
     fill="none"
     fill-rule="evenodd">
    <g
       id="iPhone-XR"
       transform="translate(-58.000000, -389.000000)">
      <g
         id="Form"
         transform="translate(24.000000, 355.000000)">
        <g
           id="Form-Field_Name"
           transform="translate(16.000000, 16.000000)">
          <g
             id="icon"
             transform="translate(16.000000, 16.000000)">
            <rect
               id="bounds"
               x="0"
               y="0"
               width="24"
               height="23.6666667" />
            <mask
               id="mask-2"
               fill="white">
              <use
                 xlink:href="#path-1"
                 id="use18" />
            </mask>
            <use
               id="profile"
               fill="#757083"
               fill-rule="nonzero"
               xlink:href="#path-1" />
          </g>
        </g>
      </g>
    </g>
  </g>
</svg>
